<svg xmlns="http://www.w3.org/2000/svg" width="86.882" height="73.507" viewBox="0 0 86.882 73.507">
  <g id="Group_198333" data-name="Group 198333" transform="translate(5044.466 7016.395)">
    <path id="Subtraction_19" data-name="Subtraction 19" d="M49.554,62.5h0l-15.226,0H6.738c-.281,0-.513,0-.73-.013a6.265,6.265,0,0,1-4.2-1.843,5.972,5.972,0,0,1-1.761-4.2C.015,51.371.019,46.216.023,41.232v-.019c0-2.209,0-4.494,0-6.741a1.551,1.551,0,0,1,.841-1.508,1.56,1.56,0,0,1,.727-.191,1.664,1.664,0,0,1,.986.358,6.77,6.77,0,0,0,4.155,1.244h.032c3.3-.01,6.815-.014,11.389-.014l6.074,0,6.074,0h.909v1.407c0,1.013,0,1.97,0,2.938.009,1.343.582,1.916,1.918,1.918l3.58,0h4.826c1.688,0,2.176-.487,2.178-2.172,0-.879,0-1.758,0-2.66v-.018c0-.464,0-.934,0-1.413H56.738c4.634,0,8.19,0,11.53.01h.022a6.621,6.621,0,0,0,3.785-1.055,2.614,2.614,0,0,1,1.371-.549c.522,0,.958.335,1.456,1.12v3.654A21.891,21.891,0,0,0,49.553,62.495ZM16.5,31.253c-3.012,0-6.573,0-10.148-.009a6.286,6.286,0,0,1-4.505-1.831A6.451,6.451,0,0,1,.029,24.865c0-1.022,0-2.062.013-3.067C.059,19.945.076,18.03.005,16.15a6.444,6.444,0,0,1,6.564-6.8l.186,0c1.658.042,3.437.061,5.6.061,1.431,0,2.885-.008,4.291-.017S19.5,9.38,20.936,9.38h.917c0-.319,0-.628,0-.93,0-.648,0-1.257,0-1.869A6.251,6.251,0,0,1,28.419.005C30.7,0,33.068,0,35.674,0c3.83,0,7.646,0,10.874.008A7.494,7.494,0,0,1,48,.113,6.25,6.25,0,0,1,53.072,6.4c.012.663.009,1.319.006,2.013,0,.317,0,.639,0,.968h1.747l3.565,0,3.182,0c2.023,0,4.69,0,7.372.033A6.053,6.053,0,0,1,74.622,13.8c.064.211.132.425.2.632l0,0,.081.255V25.828c-.011.028-.024.056-.036.085a1.222,1.222,0,0,0-.067.177c-.953,3.52-3.087,5.16-6.715,5.16H43.715c0-.17,0-.331,0-.486,0-.318.006-.619-.006-.915a1.571,1.571,0,0,0-1.746-1.708c-1.49-.006-3-.009-4.5-.009s-3.005,0-4.5.009a1.58,1.58,0,0,0-1.76,1.769c-.007.291-.005.581,0,.888,0,.148,0,.3,0,.452h-.6l-7.059,0ZM28.139,6.274V9.336H46.764V6.274Z" transform="translate(-5043.965 -7015.895)" fill="#674cd8" stroke="rgba(0,0,0,0)" stroke-width="1"/>
    <path id="Path_188999" data-name="Path 188999" d="M84.111,28.388a4.39,4.39,0,0,1-.747-.43c-.39-.341-.736-.733-1.108-1.094a2.459,2.459,0,0,0-2.8-.615,2.489,2.489,0,0,0-1.613,2.383c-.024.519,0,1.04-.009,1.56-.014.764-.328,1.1-1.081,1.113q-1.7.024-3.4,0c-.762-.01-1.085-.343-1.1-1.1-.01-.5.009-1-.006-1.5a2.508,2.508,0,0,0-1.6-2.451,2.466,2.466,0,0,0-2.847.635c-.369.365-.724.746-1.1,1.1a.96.96,0,0,1-1.436-.006q-1.279-1.25-2.526-2.534a.953.953,0,0,1,.01-1.435c.382-.407.795-.784,1.175-1.192a2.459,2.459,0,0,0,.589-2.666,2.414,2.414,0,0,0-2.154-1.669c-.61-.06-1.228-.024-1.843-.037-.724-.015-1.07-.333-1.082-1.054q-.028-1.733,0-3.466c.011-.749.353-1.06,1.122-1.074.48-.008.961.007,1.441,0a2.574,2.574,0,0,0,1.821-4.478c-.353-.354-.715-.7-1.057-1.065a.967.967,0,0,1,.005-1.479q1.229-1.26,2.487-2.492a.962.962,0,0,1,1.476.008c.4.384.78.8,1.189,1.178a2.436,2.436,0,0,0,2.665.562,2.4,2.4,0,0,0,1.634-2.119c.063-.63.026-1.269.044-1.9C72.27.372,72.59.024,73.272.014q1.758-.027,3.517,0c.712.01,1.029.355,1.043,1.09.01.5-.009,1,.006,1.5a2.51,2.51,0,0,0,1.6,2.452,2.471,2.471,0,0,0,2.848-.635c.37-.364.726-.744,1.105-1.1a.948.948,0,0,1,1.433,0q1.282,1.248,2.527,2.533A.959.959,0,0,1,87.344,7.3c-.38.408-.795.784-1.176,1.19a2.452,2.452,0,0,0-.59,2.665,2.41,2.41,0,0,0,2.154,1.668c.61.059,1.228.022,1.843.037.727.018,1.071.335,1.083,1.055q.029,1.733,0,3.466c-.012.752-.355,1.062-1.121,1.072-.48.006-.961-.009-1.441,0a2.521,2.521,0,0,0-2.487,1.633,2.488,2.488,0,0,0,.664,2.848c.353.355.716.7,1.058,1.064a.971.971,0,0,1,0,1.481Q86.1,26.743,84.835,27.97a3.6,3.6,0,0,1-.724.419M75.075,7.922a7.735,7.735,0,1,0,7.682,7.8,7.744,7.744,0,0,0-7.682-7.8" transform="translate(-5048.255 -6974.205)" fill="#674cd8"/>
  </g>
</svg>
