<svg id="Group_196558" data-name="Group 196558" xmlns="http://www.w3.org/2000/svg" xmlns:xlink="http://www.w3.org/1999/xlink" width="66.191" height="76.381" viewBox="0 0 66.191 76.381">
  <defs>
    <clipPath id="clip-path">
      <rect id="Rectangle_157265" data-name="Rectangle 157265" width="66.191" height="76.381" fill="#e5b354"/>
    </clipPath>
  </defs>
  <g id="Group_196557" data-name="Group 196557" clip-path="url(#clip-path)">
    <path id="Path_188990" data-name="Path 188990" d="M92.386,37.9a5.861,5.861,0,0,1-1-.574c-.521-.456-.982-.978-1.48-1.461a3.283,3.283,0,0,0-3.741-.821,3.323,3.323,0,0,0-2.153,3.181c-.032.693,0,1.388-.012,2.082-.018,1.02-.437,1.471-1.444,1.486q-2.27.032-4.541,0c-1.017-.013-1.448-.458-1.467-1.463-.013-.668.013-1.337-.008-2.005a3.349,3.349,0,0,0-2.136-3.272,3.292,3.292,0,0,0-3.8.848c-.493.487-.967,1-1.474,1.467a1.281,1.281,0,0,1-1.918-.008q-1.708-1.669-3.373-3.382a1.272,1.272,0,0,1,.013-1.916c.509-.543,1.061-1.047,1.569-1.591a3.282,3.282,0,0,0,.786-3.559,3.223,3.223,0,0,0-2.875-2.228c-.814-.08-1.64-.032-2.46-.05-.966-.021-1.429-.444-1.445-1.407q-.038-2.313,0-4.627c.015-1,.472-1.416,1.5-1.434.641-.011,1.283.009,1.924-.006a3.437,3.437,0,0,0,2.431-5.979c-.471-.473-.955-.934-1.411-1.422a1.291,1.291,0,0,1,.007-1.975Q65.518,6.1,67.2,4.459a1.284,1.284,0,0,1,1.971.011c.54.512,1.041,1.067,1.587,1.573a3.252,3.252,0,0,0,3.558.751,3.2,3.2,0,0,0,2.181-2.828c.085-.841.035-1.694.058-2.542.026-.926.453-1.39,1.364-1.4q2.347-.035,4.7,0C83.562.03,83.984.491,84,1.471c.013.668-.012,1.337.008,2.005A3.35,3.35,0,0,0,86.147,6.75a3.3,3.3,0,0,0,3.8-.847c.495-.486.969-.993,1.475-1.466a1.266,1.266,0,0,1,1.913,0q1.711,1.666,3.374,3.382a1.281,1.281,0,0,1-.01,1.92c-.508.545-1.061,1.046-1.57,1.589a3.273,3.273,0,0,0-.787,3.558,3.218,3.218,0,0,0,2.875,2.227c.814.079,1.64.029,2.46.05.97.025,1.43.448,1.445,1.409q.038,2.313,0,4.627c-.016,1-.473,1.418-1.5,1.431-.641.008-1.283-.012-1.924.006a3.366,3.366,0,0,0-3.32,2.18,3.322,3.322,0,0,0,.886,3.8c.471.474.956.933,1.412,1.42a1.3,1.3,0,0,1,0,1.977q-1.639,1.684-3.325,3.321a4.811,4.811,0,0,1-.967.559M80.323,10.576A10.326,10.326,0,1,0,90.578,20.987,10.338,10.338,0,0,0,80.323,10.576" transform="translate(-47.193 0)" fill="#e5b354"/>
    <path id="Path_188991" data-name="Path 188991" d="M119.388,296.05a10.272,10.272,0,0,1,5.834,8.288c.224,2.085.091,4.209.129,6.315.014.741-.417.894-1.043.892-3.1-.01-6.206,0-9.31,0q-6.617,0-13.233,0c-1.127,0-1.265-.114-1.235-1.226a53.164,53.164,0,0,1,.292-6.913,9.687,9.687,0,0,1,5.2-7.065.982.982,0,0,1,.855,0c4.06,2.825,8.284,2.792,12.259-.128.061-.045.131-.08.255-.156" transform="translate(-79.852 -235.164)" fill="#e5b354"/>
    <path id="Path_188992" data-name="Path 188992" d="M23.588,274.527A13.149,13.149,0,0,0,18.349,285.4h-.776q-8.229,0-16.458,0c-.995,0-1.127-.118-1.113-1.1a61.641,61.641,0,0,1,.159-6.308,10.153,10.153,0,0,1,5.352-7.827.74.74,0,0,1,.951.09,9.773,9.773,0,0,0,11.936.006.87.87,0,0,1,.715-.16,10.317,10.317,0,0,1,4.474,4.429" transform="translate(0.001 -214.494)" fill="#e5b354"/>
    <path id="Path_188993" data-name="Path 188993" d="M212.3,285.278a13.133,13.133,0,0,0-5.234-10.808,10.317,10.317,0,0,1,4.568-4.489.645.645,0,0,1,.528.141,9.8,9.8,0,0,0,12.114,0c.385-.308.643-.138.953.045a10.443,10.443,0,0,1,5.4,8.943c.089,1.768.014,3.544.027,5.316,0,.59-.206.914-.848.913q-8.574-.013-17.149-.008a2.676,2.676,0,0,1-.358-.055" transform="translate(-164.477 -214.435)" fill="#e5b354"/>
    <path id="Path_188994" data-name="Path 188994" d="M225.138,205.237a7.466,7.466,0,1,1,7.5,7.356,7.433,7.433,0,0,1-7.5-7.356" transform="translate(-178.836 -157.126)" fill="#e5b354"/>
    <path id="Path_188995" data-name="Path 188995" d="M38.931,205.2A7.466,7.466,0,0,1,24,205.174a7.466,7.466,0,0,1,14.931.029" transform="translate(-19.065 -157.126)" fill="#e5b354"/>
    <path id="Path_188996" data-name="Path 188996" d="M132.048,224.457a7.379,7.379,0,1,1-7.472,7.388,7.4,7.4,0,0,1,7.472-7.388" transform="translate(-98.956 -178.295)" fill="#e5b354"/>
  </g>
</svg>
