<svg xmlns="http://www.w3.org/2000/svg" width="80.987" height="84.206" viewBox="0 0 80.987 84.206">
  <path id="Path_189928" data-name="Path 189928" d="M1127.24,232.473c0,9.771.017,19.541-.007,29.312-.013,5.488-2.525,9.481-7.515,11.742a11.641,11.641,0,0,1-4.625,1.02q-28.33.1-56.66.028a12.345,12.345,0,0,1-12.117-11.662c-.022-.406-.032-.814-.032-1.22q0-29.218,0-58.435a12.247,12.247,0,0,1,6.871-11.523,11.132,11.132,0,0,1,5.325-1.323q28.283-.012,56.566.009a12.211,12.211,0,0,1,12.137,11.8c.156,6.6.05,13.214.056,19.822q0,5.214,0,10.428m-51.994-3.545c-4.447,0-8.893-.007-13.34,0a2.711,2.711,0,1,0-.088,5.411c8.924.019,17.849.029,26.773-.03a3.514,3.514,0,0,0,2.07-.888,2.33,2.33,0,0,0,.531-2.844,2.641,2.641,0,0,0-2.607-1.652q-6.67,0-13.34,0m11.522-17.227q6.524,0,13.048,0a8.384,8.384,0,0,0,1.124-.046,2.675,2.675,0,0,0,.4-5.2,6.309,6.309,0,0,0-1.582-.13q-13-.011-26,0a9.938,9.938,0,0,0-1.125.041,2.6,2.6,0,0,0-2.24,1.98,2.684,2.684,0,0,0,2.855,3.357c4.506.019,9.011.006,13.517.007M1075.2,255.677h6.2c2.442,0,4.884.035,7.325-.017a2.65,2.65,0,0,0,2.492-3.676,2.884,2.884,0,0,0-3.049-1.7q-12.96.029-25.92.012a7.154,7.154,0,0,0-.937.044,2.531,2.531,0,0,0-2.15,1.728,2.672,2.672,0,0,0,2.705,3.6c4.445.024,8.89.007,13.335.008m29.626-3.532c-.525-.647-.929-1.207-1.4-1.708a2.681,2.681,0,0,0-3.648-.311,2.641,2.641,0,0,0-.572,3.614c1,1.395,2.072,2.747,3.188,4.053a2.514,2.514,0,0,0,3.477.414q3.961-3.079,7.808-6.3a2.515,2.515,0,0,0,.5-3.252,2.6,2.6,0,0,0-2.959-1.279,4.653,4.653,0,0,0-1.529.861c-1.622,1.264-3.211,2.57-4.875,3.911m0-21.356c-.48-.59-.889-1.14-1.346-1.644a2.689,2.689,0,0,0-4.161,3.406c.954,1.278,1.934,2.54,2.958,3.762a2.58,2.58,0,0,0,3.765.434c2.537-1.986,5.038-4.019,7.528-6.063a2.505,2.505,0,0,0,.918-2.518,2.677,2.677,0,0,0-4.361-1.622c-1.765,1.346-3.468,2.773-5.3,4.246" transform="translate(-1046.282 -190.398)" fill="#4ac46b"/>
</svg>
