<svg xmlns="http://www.w3.org/2000/svg" width="76.683" height="73.59" viewBox="0 0 76.683 73.59">
  <g id="Group_198334" data-name="Group 198334" transform="translate(-18696 23938)">
    <path id="Path_189924" data-name="Path 189924" d="M425.428,347.14a4.5,4.5,0,0,1-2.622,3.145,6.478,6.478,0,0,1-2.111.383q-12.392.038-24.784.013c-3.015,0-4.769-1.787-4.772-4.815q-.005-4.305,0-8.611c0-3.01,1.782-4.78,4.807-4.781q12.055,0,24.11,0c3.172,0,4.185.676,5.371,3.584Zm-26.709-5.579c0,1.671.254,2.368,1.155,2.749a4.179,4.179,0,0,0,3.4,0c1.212-.544,1.18-1.7,1.184-2.825,0-1.019-.211-1.958-1.206-2.363a4.24,4.24,0,0,0-3.4.042,2.172,2.172,0,0,0-1.131,2.4" transform="translate(18347.256 -24234.441)" fill="#72aedc"/>
    <path id="Path_189925" data-name="Path 189925" d="M72.183,172.871h-.929c-8.086,0-16.173-.013-24.259.007a7.021,7.021,0,0,0-6.839,4.213,8.923,8.923,0,0,0-.732,3.389c-.1,3.017-.041,6.039-.031,9.059a7.367,7.367,0,0,0,7.58,7.556c5.241.015,10.482,0,15.724,0h9.51c.015.3.04.566.041.828q0,5.353,0,10.707c-.007,3.033-1.759,4.784-4.791,4.785q-31.335,0-62.669,0c-3.021,0-4.784-1.776-4.784-4.8q0-23.548,0-47.1a4.352,4.352,0,0,1,4.657-4.692q31.484-.007,62.969,0c2.736,0,4.553,1.656,4.6,4.337.064,3.792.016,7.587.013,11.38a2.58,2.58,0,0,1-.056.325" transform="translate(18696 -24077.83)" fill="#72aedc"/>
    <path id="Path_189926" data-name="Path 189926" d="M294.717,62.5H259.362a6.506,6.506,0,0,1,.617-.252q13.911-3.805,27.824-7.6a4.3,4.3,0,0,1,5.643,3.21c.435,1.525.839,3.059,1.27,4.642" transform="translate(18464.746 -23986.537)" fill="#72aedc"/>
    <path id="Path_189927" data-name="Path 189927" d="M129.826,13.821q.932-.465,1.863-.93Q144.079,6.749,156.469.609c2.473-1.224,4.844-.576,6.111,1.7.58,1.042,1.071,2.134,1.648,3.294-.347.111-.64.216-.939.3-9.659,2.639-19.31,5.312-28.99,7.874a22.664,22.664,0,0,1-4.429.3Z" transform="translate(18580.244 -23938)" fill="#72aedc"/>
  </g>
</svg>
